<svg width="20" height="20" viewBox="0 0 20 20" fill="none" xmlns="http://www.w3.org/2000/svg">
<g id="logo">
<path id="Vector" d="M5.00358 1L1 4.99979V19H15.0002L19 14.9964V1H5.00358ZM4.366 14.2129C4.57647 14.2927 4.7928 14.356 5.01305 14.4024C5.19227 14.441 5.3681 14.4939 5.53884 14.5606C5.71219 14.6264 5.87472 14.7177 6.02105 14.8316C6.16294 14.9426 6.28007 15.082 6.36495 15.2408C6.45606 15.4196 6.501 15.6182 6.49568 15.8187C6.50636 16.0618 6.4531 16.3035 6.34123 16.5196C6.22936 16.7357 6.06278 16.9187 5.85811 17.0503C5.66265 17.1769 5.44655 17.2683 5.21958 17.3203C4.98777 17.3759 4.75027 17.4042 4.51189 17.4046C4.13375 17.4047 3.75812 17.3432 3.39968 17.2227C3.06033 17.1158 2.7499 16.9327 2.49211 16.6875L3.34474 15.7837C3.48763 15.9382 3.65827 16.0645 3.84779 16.156C4.04396 16.2552 4.26082 16.3065 4.48063 16.3057C4.60841 16.3049 4.73426 16.2744 4.84821 16.2166C4.9066 16.1893 4.95528 16.1448 4.98777 16.0892C5.02026 16.0335 5.03503 15.9692 5.03011 15.9049C5.03029 15.8355 5.00887 15.7678 4.96881 15.7111C4.92874 15.6544 4.87203 15.6115 4.80653 15.5885C4.58088 15.4958 4.34715 15.4241 4.10832 15.3744C3.94365 15.3363 3.78188 15.2866 3.62421 15.2257C3.46697 15.1662 3.32067 15.081 3.19126 14.9737C3.06135 14.8661 2.95494 14.7329 2.87863 14.5824C2.79406 14.4089 2.75278 14.2174 2.75832 14.0244C2.75058 13.7753 2.81154 13.5288 2.93453 13.312C3.04897 13.1201 3.20501 12.9563 3.39116 12.8326C3.58075 12.7068 3.79022 12.614 4.01074 12.5579C4.23078 12.4992 4.45752 12.4692 4.68526 12.4688C5.03153 12.4689 5.3756 12.5239 5.70463 12.6318C6.01852 12.7301 6.30656 12.8971 6.54779 13.1206L5.71126 13.9789C5.58174 13.8576 5.43406 13.7573 5.27358 13.6815C5.10825 13.6013 4.92681 13.5598 4.74305 13.5602C4.60659 13.5592 4.47151 13.5876 4.34705 13.6436C4.29066 13.667 4.24296 13.7075 4.21054 13.7592C4.17812 13.811 4.1626 13.8715 4.16611 13.9325C4.16414 13.9947 4.18264 14.0558 4.21874 14.1065C4.25485 14.1571 4.30658 14.1945 4.366 14.2129ZM5.71126 7.89211C5.58202 7.77017 5.4343 7.66945 5.27358 7.59368C5.10825 7.51346 4.92681 7.47199 4.74305 7.47242C4.60648 7.47124 4.4713 7.50002 4.34705 7.55674C4.29066 7.5802 4.24296 7.62061 4.21054 7.67238C4.17812 7.72415 4.1626 7.78471 4.16611 7.84568C4.16456 7.90754 4.18325 7.96821 4.21933 8.01848C4.25541 8.06875 4.3069 8.10587 4.366 8.12421C4.57647 8.20397 4.7928 8.26731 5.01305 8.31368C5.19227 8.35226 5.3681 8.40517 5.53884 8.4719C5.71196 8.5365 5.87448 8.62654 6.02105 8.73905C6.16231 8.84979 6.27881 8.98888 6.36305 9.14737C6.45491 9.32618 6.5002 9.52526 6.49474 9.72621C6.50541 9.96932 6.45216 10.211 6.34028 10.4271C6.22841 10.6432 6.06183 10.8262 5.85716 10.9578C5.66196 11.0851 5.44579 11.1768 5.21863 11.2287C4.98671 11.2835 4.74926 11.3115 4.51095 11.3121C4.1328 11.3121 3.75717 11.2507 3.39874 11.1302C3.05922 11.0236 2.74871 10.8405 2.49116 10.5949L3.34379 9.69211C3.4872 9.84604 3.65773 9.97225 3.84684 10.0644C4.04308 10.1633 4.25995 10.2143 4.47968 10.2132C4.60734 10.2123 4.73309 10.1821 4.84726 10.1251C4.90581 10.0977 4.9546 10.0531 4.98711 9.99718C5.01961 9.94132 5.03428 9.87685 5.02916 9.81242C5.02921 9.74303 5.00773 9.67533 4.96768 9.61866C4.92764 9.56199 4.871 9.51913 4.80558 9.496C4.57977 9.40373 4.34608 9.33207 4.10737 9.28189C3.94258 9.2442 3.78078 9.19449 3.62326 9.13316C3.46603 9.07404 3.31972 8.9892 3.19032 8.88211C3.06071 8.77417 2.95436 8.64107 2.87768 8.49084C2.79321 8.31691 2.75194 8.12517 2.75737 7.93189C2.74973 7.68276 2.81069 7.43632 2.93358 7.21947C3.04828 7.02774 3.20427 6.86398 3.39021 6.74011C3.57981 6.61431 3.78927 6.52143 4.00979 6.46537C4.22997 6.40742 4.45664 6.37781 4.68432 6.37726C5.03062 6.37687 5.37476 6.43188 5.70368 6.54021C6.0179 6.63774 6.30609 6.80482 6.54684 7.02905L5.71126 7.89211ZM7.34737 4.67958C7.39006 4.5771 7.45474 4.48525 7.53684 4.41053C7.62073 4.33466 7.71682 4.27349 7.82105 4.22958C7.92949 4.18232 8.04666 4.15843 8.16495 4.15947C8.28147 4.15916 8.39695 4.18135 8.50505 4.22484C8.61057 4.26453 8.70717 4.32474 8.78926 4.402C8.86911 4.47722 8.93348 4.56733 8.97874 4.66726C9.02535 4.77159 9.04944 4.88457 9.04944 4.99884C9.04944 5.11311 9.02535 5.22609 8.97874 5.33042C8.93465 5.43147 8.87078 5.52268 8.79089 5.59866C8.711 5.67465 8.61671 5.73387 8.51358 5.77284C8.40548 5.81633 8.28999 5.83853 8.17347 5.83821C8.05618 5.84335 7.93909 5.8242 7.82955 5.78198C7.72 5.73976 7.62035 5.67537 7.53684 5.59284C7.45628 5.51706 7.39229 5.42541 7.34892 5.32366C7.30555 5.22191 7.28373 5.11228 7.28484 5.00168C7.28376 4.8912 7.30502 4.78163 7.34737 4.67958ZM8.92379 6.52316V11.1653H7.39663V6.52316H8.92379ZM11.9686 17.2483H10.4974V16.606H10.4794C10.4208 16.7153 10.3471 16.8157 10.2605 16.9044C10.167 16.9999 10.0601 17.0812 9.94316 17.146C9.81663 17.2168 9.68252 17.273 9.54337 17.3137C9.39359 17.3578 9.23815 17.3799 9.082 17.3791C8.8102 17.3875 8.5404 17.33 8.29568 17.2114C8.0914 17.1081 7.91299 16.9601 7.77368 16.7784C7.63992 16.5974 7.54333 16.3916 7.48947 16.1731C7.42995 15.9467 7.40002 15.7136 7.40042 15.4796V12.6109H8.93705V15.1253C8.9347 15.2488 8.94167 15.3723 8.95789 15.4947C8.97454 15.6062 9.01113 15.7137 9.0659 15.8121C9.11539 15.9021 9.18757 15.9775 9.27526 16.0309C9.38069 16.0877 9.49953 16.1149 9.61916 16.1096C9.73775 16.1159 9.85599 16.0919 9.96273 16.0398C10.0695 15.9878 10.1612 15.9094 10.2293 15.8121C10.371 15.607 10.4443 15.3622 10.4386 15.1129V12.6109H11.9658L11.9686 17.2483Z" fill="#374151"/>
</g>
</svg>